<svg width="178" height="114" viewBox="0 0 178 114" fill="none" xmlns="http://www.w3.org/2000/svg">
<path d="M50.5344 64.6074L42.8487 43.6711L34.9622 64.6074H50.5344ZM51.4637 67.4555H33.9324L30.8682 75.6251C30.1147 77.6488 29.738 79.1478 29.738 80.1471C29.738 80.9466 30.0645 81.6212 30.7175 82.2208C31.3705 82.8204 32.8022 83.2201 34.9622 83.395V84.8191H20.7212V83.395C22.6049 83.0203 23.8356 82.5206 24.3882 81.896C25.5184 80.6718 26.7742 78.1984 28.1556 74.4509L44.0795 31.804H45.2348L60.9828 74.9256C62.2637 78.3983 63.394 80.6468 64.4489 81.6711C65.4786 82.6955 66.9354 83.2951 68.7689 83.42V84.8441H50.9111V83.42C52.7195 83.3201 53.9251 82.9703 54.5781 82.3957C55.206 81.821 55.5325 81.0965 55.5325 80.2471C55.5325 79.1228 55.0804 77.349 54.2014 74.9256L51.4637 67.4555Z" fill="white"/>
<path d="M80.4728 81.0467C83.311 81.7712 85.6719 82.121 87.5808 82.121C92.7547 82.121 97.0245 80.0474 100.44 75.9001C103.856 71.7528 105.539 66.1065 105.539 59.0112C105.539 51.8409 103.831 44.9705 100.44 40.8482C97.0245 36.7259 92.6543 34.6522 87.3296 34.6522C85.3203 34.6522 83.0598 35.027 80.4979 35.7515L80.4728 81.0467ZM67.563 84.7943V83.3702H69.2709C71.1797 83.3702 72.536 82.6706 73.3398 81.2716C73.817 80.4221 74.0681 78.5484 74.0681 75.6253V40.9231C74.0681 37.7002 73.7416 35.6516 73.1388 34.8521C72.2598 33.7279 70.9788 33.1782 69.2709 33.1782H67.563V31.7542H85.9984C92.7547 31.7542 97.9036 32.6286 101.445 34.4024C104.961 36.1513 107.799 39.0993 109.959 43.1966C112.094 47.2939 113.174 53.265 113.174 58.6365C113.174 65.8567 111.266 71.8778 107.423 76.7246C103.128 82.121 96.5724 84.8192 87.8068 84.8192H67.563V84.7943Z" fill="white"/>
<path d="M139.722 64.6074L132.037 43.6711L124.15 64.6074H139.722ZM140.677 67.4555H123.146L120.081 75.6251C119.328 77.6488 118.951 79.1478 118.951 80.1471C118.951 80.9466 119.278 81.6212 119.931 82.2208C120.584 82.8204 122.015 83.2201 124.175 83.395V84.8191H109.909V83.395C111.793 83.0203 113.024 82.5206 113.576 81.896C114.706 80.6718 115.962 78.1984 117.344 74.4509L133.267 31.804H134.448L150.196 74.9256C151.452 78.3983 152.607 80.6468 153.637 81.6711C154.667 82.6955 156.123 83.2951 157.957 83.42V84.8441H140.149V83.42C141.958 83.3201 143.163 82.9703 143.791 82.3957C144.419 81.821 144.746 81.0965 144.746 80.2471C144.746 79.1228 144.294 77.349 143.414 74.9256L140.677 67.4555Z" fill="white"/>
<path d="M0.653207 80.4221L0.477392 80.3971L0.653207 78.0237L0.829022 78.0487L0.803905 78.2985C0.778789 78.5733 0.879255 78.7732 1.1053 78.9231C1.20577 78.998 1.43182 79.048 1.80856 79.073L4.54625 79.2729C5.22439 79.3228 5.75184 79.4228 6.10347 79.5727C6.48021 79.7226 6.78161 80.0224 7.00766 80.4221C7.25882 80.8218 7.33417 81.3715 7.30905 82.046C7.25882 82.7706 7.08301 83.3202 6.80673 83.695C6.53045 84.0697 6.1537 84.2946 5.72672 84.4445C5.42532 84.5194 4.87276 84.5444 4.04392 84.4944L1.4067 84.3195C0.97972 84.2946 0.70344 84.3195 0.577858 84.4445C0.427159 84.5444 0.35181 84.7193 0.35181 84.9941L0.326694 85.2439L0.150879 85.219L0.35181 82.3209H0.527625L0.502509 82.5707C0.477392 82.8455 0.552741 83.0454 0.728556 83.1953C0.854138 83.2952 1.08019 83.3452 1.48205 83.3702L4.44578 83.57C4.69695 83.595 5.02346 83.595 5.34997 83.57C5.7016 83.5451 5.95277 83.4701 6.1537 83.3702C6.35463 83.2702 6.53045 83.0954 6.65603 82.8705C6.80673 82.6456 6.88208 82.3458 6.90719 82.0211C6.93231 81.5713 6.85696 81.1716 6.70626 80.8218C6.53045 80.4721 6.3044 80.1973 6.003 80.0474C5.7016 79.8975 5.19928 79.7975 4.49602 79.7476L1.75833 79.5477C1.33135 79.5227 1.05507 79.5477 0.954604 79.6226C0.803905 79.7476 0.70344 79.9224 0.70344 80.1723L0.653207 80.4221Z" fill="white"/>
<path d="M1.45654 72.2523L1.85841 70.4535L7.73564 67.5304L3.91795 66.706C3.51609 66.606 3.23981 66.606 3.11423 66.681C2.93841 66.7809 2.83795 66.9558 2.78771 67.2056L2.73748 67.4305L2.56166 67.3805L3.06399 65.082L3.23981 65.132L3.18957 65.3569C3.13934 65.6317 3.16446 65.8565 3.31516 66.0064C3.41562 66.1064 3.64167 66.1813 3.9933 66.2812L9.59426 67.5054L9.54403 67.6803L3.23981 70.8532L7.33378 71.7526C7.73565 71.8526 8.01193 71.8526 8.13751 71.7776C8.31332 71.6777 8.41379 71.5028 8.46402 71.253L8.51425 71.0281L8.69007 71.0781L8.18774 73.3766L8.01193 73.3266L8.06216 73.1018C8.13751 72.8269 8.08727 72.6021 7.93658 72.4522C7.83611 72.3522 7.61006 72.2773 7.25843 72.1774L2.63701 71.153C2.36073 71.3029 2.18492 71.4029 2.08445 71.4778C1.98399 71.5528 1.88352 71.7027 1.78306 71.8776C1.73282 71.9775 1.68259 72.1024 1.63236 72.3023L1.45654 72.2523Z" fill="white"/>
<path d="M12.1063 58.7362L12.2821 58.7861L11.3026 61.5093L11.1268 61.4594L11.2021 61.2345C11.3026 60.9847 11.2775 60.7598 11.177 60.5849C11.1016 60.485 10.8756 60.3601 10.4988 60.2102L6.37975 58.7362C6.05324 58.6112 5.82719 58.5613 5.72672 58.5613C5.62626 58.5613 5.55091 58.6112 5.45044 58.6862C5.32486 58.7861 5.2244 58.936 5.17416 59.0859L5.09881 59.3108L4.923 59.2608L5.90254 56.5376L6.07835 56.5876L6.00301 56.8124C5.90254 57.0623 5.92766 57.2871 6.02812 57.462C6.10347 57.5869 6.32952 57.7118 6.70626 57.8367L10.8254 59.3108C11.1519 59.4357 11.3779 59.4857 11.4784 59.4857C11.5788 59.4857 11.6542 59.4357 11.7547 59.3607C11.8802 59.2608 11.9556 59.1359 12.0309 58.986L12.1063 58.7362ZM3.74253 57.2871C3.79276 57.1372 3.89323 57.0373 4.01881 56.9873C4.14439 56.9124 4.29509 56.9124 4.44579 56.9623C4.59649 57.0123 4.69695 57.1122 4.74718 57.2371C4.82253 57.3621 4.82253 57.512 4.7723 57.6619C4.72207 57.8118 4.6216 57.9117 4.49602 57.9617C4.37044 58.0366 4.21974 58.0366 4.06904 57.9866C3.91834 57.9367 3.81788 57.8367 3.76765 57.7118C3.6923 57.5619 3.6923 57.437 3.74253 57.2871Z" fill="white"/>
<path d="M11.4782 44.5208L11.6541 44.5957C11.5787 44.8206 11.5787 45.0204 11.6038 45.1703C11.6792 45.3952 11.8299 45.645 12.0559 45.9198L16.1248 50.6167L16.0494 50.7916L9.66986 50.3919C9.34334 50.3669 9.14241 50.3669 9.04195 50.3919C8.91636 50.4169 8.79078 50.4668 8.69032 50.5668C8.58985 50.6417 8.46427 50.7666 8.3638 50.9415L8.18799 50.8666L9.44381 48.4182L9.61962 48.4931C9.49404 48.7929 9.46893 48.9928 9.49404 49.1177C9.51916 49.2426 9.59451 49.3176 9.69497 49.3676C9.84567 49.4425 10.122 49.4925 10.4987 49.5175L14.8438 49.7923L12.081 46.5944C11.8048 46.2696 11.6038 46.0947 11.4782 46.0198C11.4029 45.9698 11.2773 45.9698 11.1768 46.0198C11.0513 46.0697 10.9257 46.1947 10.775 46.3695C10.775 46.3945 10.7499 46.3945 10.7247 46.4445L10.5489 46.3695L11.4782 44.5208Z" fill="white"/>
<path d="M16.1248 37.9251L18.335 39.4741L19.189 38.2749C19.415 37.9501 19.5155 37.7252 19.4904 37.5504C19.4653 37.3255 19.2894 37.0757 18.9881 36.8508L19.0885 36.7009L21.0225 38.05L20.922 38.1999C20.6206 38.05 20.4197 37.9751 20.3192 37.9501C20.1936 37.9251 20.0681 37.9501 19.9174 38.025C19.7918 38.1 19.6411 38.2499 19.4653 38.4747L18.6113 39.674L20.4448 40.9481C20.696 41.123 20.8467 41.2229 20.922 41.2229C20.9974 41.2479 21.0476 41.2229 21.1229 41.198C21.1983 41.173 21.2736 41.073 21.3992 40.9231L22.0523 39.9987C22.2783 39.6989 22.4039 39.4491 22.4792 39.2742C22.5295 39.0993 22.5546 38.8995 22.5043 38.6746C22.4541 38.3998 22.3285 38.025 22.1025 37.6253L22.2281 37.4754L23.283 38.9245L20.269 43.1717L20.1183 43.0717L20.269 42.8719C20.3695 42.7469 20.4197 42.597 20.4448 42.4471C20.4699 42.3222 20.4448 42.2223 20.3695 42.1224C20.2941 42.0224 20.1434 41.8975 19.8671 41.6976L16.2504 39.1743C15.8987 38.9245 15.6476 38.7995 15.522 38.8245C15.3462 38.8495 15.1704 38.9744 15.0197 39.1993L14.869 39.3991L14.7183 39.2992L17.7322 35.052L18.9881 35.8515L18.8876 36.0014C18.5611 35.8515 18.3099 35.7765 18.1592 35.7765C18.0085 35.7765 17.8327 35.8015 17.682 35.9014C17.5564 35.9764 17.4057 36.1513 17.2048 36.4261L16.1248 37.9251Z" fill="white"/>
<path d="M25.7444 30.5797C25.7946 30.5297 25.8197 30.5047 25.8699 30.4548C25.8951 30.4298 25.9202 30.4048 25.9453 30.3798C26.3974 29.9051 26.6234 29.4554 26.6485 29.0307C26.6737 28.606 26.523 28.2312 26.1965 27.9564C25.8951 27.6566 25.5434 27.5317 25.1667 27.5317C24.7899 27.5317 24.4634 27.7066 24.162 28.0314C24.0364 28.1813 23.8857 28.3811 23.6848 28.656L25.7444 30.5797ZM31.5965 29.4554L30.3658 30.7796L26.4727 30.2799C26.3723 30.4048 26.2718 30.5047 26.1965 30.5797C26.1713 30.6047 26.1462 30.6546 26.096 30.6796C26.0709 30.7046 26.0206 30.7546 25.9955 30.7796L27.4272 32.1287C27.7286 32.4285 27.9546 32.5784 28.1053 32.5784C28.3062 32.5784 28.482 32.5034 28.6579 32.3036L28.8337 32.1037L28.9593 32.2286L26.9751 34.3272L26.8495 34.2023L27.0253 34.0274C27.2262 33.8276 27.3016 33.6027 27.2513 33.4028C27.2262 33.2779 27.0755 33.078 26.7741 32.8282L23.5843 29.8552C23.2829 29.5554 23.0569 29.4304 22.9062 29.4055C22.7053 29.4055 22.5295 29.4804 22.3536 29.6803L22.1778 29.8552L22.0522 29.7303L23.735 27.9314C24.2374 27.4068 24.6392 27.057 24.9406 26.8821C25.242 26.7072 25.5937 26.6323 25.9704 26.6573C26.3472 26.6823 26.6737 26.8072 26.9499 27.082C27.2513 27.3568 27.4272 27.7066 27.4523 28.1063C27.5025 28.5061 27.3518 28.9558 27.0504 29.4554L29.4365 29.7552C29.989 29.8302 30.3909 29.8302 30.6421 29.7552C30.8932 29.6803 31.1695 29.5304 31.4709 29.2805L31.5965 29.4554Z" fill="white"/>
<path d="M34.4097 17.9382L35.8916 19.762L35.7409 19.8869C35.4144 19.5871 35.0879 19.3623 34.8116 19.2624C34.5353 19.1624 34.2088 19.1374 33.9074 19.1874C33.5809 19.2374 33.3046 19.3623 33.0785 19.5622C32.8023 19.787 32.6516 20.0369 32.6013 20.3367C32.5511 20.6365 32.6264 20.9113 32.8023 21.1111C32.9278 21.261 33.1037 21.361 33.3297 21.4109C33.6562 21.4859 34.2339 21.4359 35.113 21.261C35.8162 21.1361 36.3186 21.0612 36.62 21.0612C36.9213 21.0612 37.1976 21.1111 37.4488 21.2111C37.7 21.311 37.9009 21.4859 38.0767 21.6858C38.4032 22.0855 38.5288 22.5602 38.4534 23.0848C38.3781 23.6095 38.1018 24.0842 37.5995 24.4839C37.4488 24.6088 37.2981 24.7088 37.1474 24.8087C37.0469 24.8587 36.846 24.9586 36.5446 25.0585C36.2181 25.1835 36.0423 25.2584 35.9669 25.3334C35.8916 25.3833 35.8665 25.4583 35.8665 25.5083C35.8665 25.5832 35.8916 25.6831 35.9669 25.8081L35.8162 25.933L34.3595 24.1342L34.5102 24.0092C34.8869 24.334 35.2134 24.5339 35.4646 24.6338C35.7409 24.7338 36.0423 24.7338 36.3688 24.6838C36.6953 24.6088 37.0218 24.4839 37.2981 24.2341C37.6246 23.9843 37.8004 23.6845 37.8507 23.3597C37.9009 23.0349 37.8255 22.7601 37.6497 22.5352C37.5493 22.4103 37.3986 22.3104 37.2227 22.2354C37.0469 22.1605 36.8209 22.1355 36.5948 22.1355C36.419 22.1355 36.0172 22.2104 35.3641 22.3104C34.7111 22.4353 34.2339 22.4852 33.9074 22.4852C33.606 22.4852 33.3046 22.4353 33.0785 22.3353C32.8274 22.2354 32.6264 22.0855 32.4506 21.8607C32.1492 21.4859 32.0236 21.0362 32.099 20.5365C32.1743 20.0369 32.4255 19.5871 32.8776 19.2374C33.1539 19.0125 33.5055 18.8376 33.9325 18.7127C34.1334 18.6628 34.259 18.6128 34.3092 18.5628C34.3846 18.5129 34.4097 18.4379 34.4348 18.363C34.4348 18.288 34.4097 18.1881 34.3344 18.0382L34.4097 17.9382Z" fill="white"/>
<path d="M40.4623 11.7672C40.5879 11.6922 40.7386 11.6672 40.8642 11.6922C41.0149 11.7172 41.1153 11.7922 41.2158 11.9421C41.2912 12.067 41.3163 12.1919 41.2912 12.3418C41.266 12.4917 41.1907 12.5916 41.04 12.6916C40.9144 12.7665 40.7637 12.7915 40.6381 12.7665C40.4874 12.7415 40.387 12.6666 40.2865 12.5167C40.2112 12.3918 40.186 12.2669 40.2112 12.117C40.2614 11.967 40.3367 11.8421 40.4623 11.7672ZM46.1889 18.0131L46.2893 18.163L43.8279 19.712L43.7275 19.5621L43.9284 19.4371C44.1544 19.2872 44.3051 19.1123 44.3051 18.9125C44.3051 18.7876 44.2047 18.5377 44.0037 18.2129L41.6428 14.5404C41.467 14.2406 41.3163 14.0657 41.2158 14.0157C41.1405 13.9657 41.04 13.9408 40.9395 13.9408C40.7637 13.9408 40.613 13.9907 40.4874 14.0907L40.2865 14.2156L40.186 14.0657L42.6474 12.5167L42.7479 12.6666L42.547 12.7915C42.3209 12.9414 42.1953 13.1163 42.1702 13.3162C42.1451 13.4411 42.2707 13.6909 42.4716 14.0407L44.8326 17.7133C45.0084 18.0131 45.1591 18.188 45.2595 18.2379C45.3349 18.2879 45.4354 18.3129 45.5609 18.3129C45.7368 18.3129 45.8623 18.2629 46.013 18.163L46.1889 18.0131Z" fill="white"/>
<path d="M53.1715 6.94556L53.925 8.34464L53.7492 8.41959C53.5985 8.19474 53.4729 8.01985 53.3473 7.9449C53.1715 7.81998 52.9957 7.74503 52.7948 7.74503C52.5938 7.74503 52.3678 7.795 52.1166 7.91992L51.2627 8.31965L53.498 12.9666C53.6738 13.3413 53.8245 13.5662 53.9501 13.6162C54.1259 13.6911 54.3269 13.6661 54.578 13.5412L54.779 13.4413L54.8543 13.6162L52.2673 14.8653L52.192 14.6905L52.418 14.5905C52.6692 14.4656 52.8199 14.2907 52.845 14.0909C52.8701 13.9659 52.7948 13.7411 52.6189 13.3913L50.4087 8.74437L49.6803 9.09414C49.404 9.21906 49.2031 9.34398 49.1026 9.44391C48.9771 9.56883 48.9017 9.74372 48.8515 9.96857C48.8264 10.1934 48.8515 10.4433 48.9771 10.7181L48.8013 10.793L48.1733 9.34398L53.1715 6.94556Z" fill="white"/>
<path d="M61.0579 4.37222L61.8868 6.92055L63.3184 6.47084C63.6952 6.34593 63.9212 6.22101 63.9965 6.07111C64.1221 5.87124 64.1221 5.59642 64.0217 5.22167L64.1975 5.1717L64.9259 7.39524L64.75 7.4452C64.5993 7.1454 64.4989 6.97052 64.4235 6.89556C64.3231 6.79563 64.1975 6.74566 64.0468 6.72068C63.8961 6.6957 63.6952 6.72068 63.4189 6.82061L61.9872 7.27032L62.6654 9.39392C62.7658 9.66874 62.8161 9.84362 62.8663 9.89359C62.9165 9.94356 62.9668 9.99353 63.0421 9.99353C63.1175 10.0185 63.2431 9.99353 63.4189 9.94356L64.524 9.59379C64.9007 9.46887 65.1519 9.36894 65.3026 9.269C65.4533 9.16907 65.5789 9.01917 65.6793 8.8193C65.8049 8.56946 65.9305 8.19471 66.0059 7.74501L66.2068 7.69504L66.1566 9.49385L61.1584 11.0928L61.1082 10.9179L61.3342 10.843C61.4849 10.793 61.6105 10.718 61.7361 10.5931C61.8114 10.5182 61.8617 10.4182 61.8617 10.2933C61.8617 10.1934 61.8114 9.96854 61.711 9.64376L60.3547 5.4715C60.2291 5.07176 60.1035 4.82193 59.9779 4.74698C59.8272 4.64704 59.6012 4.64704 59.35 4.74698L59.124 4.82193L59.0737 4.64704L64.0719 3.0481L64.5993 4.42219L64.4235 4.47216C64.2477 4.14737 64.097 3.9475 63.9714 3.84757C63.8458 3.74764 63.6951 3.69767 63.5193 3.67268C63.3686 3.67268 63.1426 3.72265 62.8161 3.82259L61.0579 4.37222Z" fill="white"/>
<path d="M76.354 0.349854L76.7056 1.89883L76.5298 1.92382C76.4545 1.649 76.354 1.47411 76.2787 1.37418C76.1531 1.19929 75.9773 1.07438 75.8014 1.02441C75.6005 0.974443 75.3745 0.949459 75.0982 0.999426L74.1438 1.17431L75.048 6.24597C75.1233 6.64571 75.1987 6.89555 75.3242 6.99548C75.4749 7.1204 75.6759 7.14538 75.927 7.09542L76.1531 7.04545L76.1782 7.22033L73.34 7.72L73.3149 7.54512L73.541 7.49515C73.8172 7.44519 74.0182 7.32027 74.0935 7.14538C74.1438 7.02046 74.1438 6.79561 74.0684 6.42086L73.1642 1.3492L72.3605 1.4991C72.0591 1.54906 71.8331 1.62402 71.7075 1.67398C71.5568 1.77392 71.4312 1.89883 71.3307 2.0987C71.2303 2.29857 71.2051 2.54841 71.2303 2.84821L71.0544 2.87319L70.8535 1.29923L76.354 0.349854Z" fill="white"/>
<path d="M111.994 2.67317L112.044 2.49828L114.38 3.07291L114.33 3.24779L114.079 3.19782C113.828 3.12287 113.602 3.19782 113.401 3.37271C113.3 3.44766 113.225 3.67251 113.124 4.04726L112.446 6.69552C112.271 7.34509 112.095 7.84477 111.869 8.16955C111.643 8.49434 111.316 8.74417 110.864 8.91906C110.412 9.09394 109.859 9.06896 109.206 8.91906C108.478 8.74417 107.976 8.46935 107.674 8.14457C107.373 7.7948 107.197 7.39506 107.147 6.94536C107.122 6.64555 107.197 6.09592 107.398 5.29644L108.051 2.74812C108.151 2.34838 108.151 2.07356 108.076 1.92366C108.001 1.77376 107.825 1.67383 107.574 1.59888L107.323 1.54891L107.373 1.37402L110.211 2.09855L110.161 2.27343L109.91 2.19848C109.633 2.12353 109.432 2.1735 109.257 2.29842C109.156 2.39835 109.056 2.6232 108.955 2.99795L108.227 5.84608C108.151 6.09592 108.101 6.39572 108.076 6.74549C108.051 7.09526 108.051 7.37008 108.126 7.56995C108.202 7.7948 108.352 7.96968 108.553 8.14457C108.754 8.31945 109.03 8.44437 109.357 8.54431C109.784 8.64424 110.186 8.64424 110.588 8.54431C110.964 8.44437 111.266 8.26949 111.467 7.99467C111.668 7.74483 111.844 7.24516 112.019 6.5706L112.697 3.92235C112.798 3.52261 112.823 3.24779 112.748 3.12287C112.647 2.94799 112.497 2.82307 112.245 2.7731L111.994 2.67317Z" fill="white"/>
<path d="M120.584 5.12183L122.267 5.84635L124.075 12.1172L125.632 8.54457C125.808 8.16982 125.858 7.895 125.808 7.77008C125.758 7.5952 125.607 7.4453 125.356 7.34536L125.13 7.24543L125.205 7.07054L127.39 7.99494L127.315 8.16982L127.089 8.06989C126.813 7.94497 126.612 7.94497 126.436 8.06989C126.336 8.14484 126.185 8.34471 126.059 8.69448L123.799 13.916L123.623 13.8411L121.664 7.09553L120.006 10.918C119.83 11.2928 119.78 11.5426 119.83 11.6925C119.881 11.8674 120.031 12.0173 120.282 12.1172L120.509 12.2172L120.433 12.392L118.248 11.4677L118.323 11.2928L118.549 11.3927C118.826 11.5176 119.027 11.5176 119.228 11.3927C119.328 11.3177 119.479 11.1179 119.604 10.7681L121.463 6.44595C121.362 6.17114 121.287 5.97127 121.237 5.84635C121.162 5.74642 121.061 5.6215 120.91 5.4716C120.835 5.39665 120.709 5.34668 120.534 5.24674L120.584 5.12183Z" fill="white"/>
<path d="M132.489 18.3631L132.388 18.513L129.902 17.0389L130.002 16.889L130.203 17.014C130.454 17.1639 130.655 17.1888 130.856 17.1139C130.982 17.0639 131.158 16.8641 131.359 16.5143L133.619 12.7668C133.795 12.467 133.895 12.2671 133.92 12.1422C133.946 12.0422 133.92 11.9673 133.845 11.8424C133.77 11.6925 133.644 11.5925 133.519 11.4926L133.318 11.3677L133.418 11.2178L135.905 12.6918L135.804 12.8417L135.603 12.7168C135.377 12.5669 135.151 12.5419 134.95 12.6169C134.825 12.6668 134.649 12.8667 134.448 13.2165L132.187 16.964C132.012 17.2638 131.911 17.4637 131.886 17.5886C131.861 17.6885 131.886 17.7635 131.961 17.8884C132.037 18.0383 132.162 18.1382 132.288 18.2132L132.489 18.3631Z" fill="white"/>
<path d="M147.157 20.8863L147.031 21.0362C146.805 20.9113 146.63 20.8613 146.454 20.8863C146.203 20.9113 145.926 21.0112 145.625 21.1861L140.175 24.2091L140.024 24.0842L141.682 17.9632C141.757 17.6384 141.807 17.4386 141.807 17.3636C141.807 17.2387 141.782 17.1138 141.707 16.9888C141.656 16.8639 141.531 16.739 141.38 16.5891L141.506 16.4392L143.666 18.1631L143.54 18.313C143.264 18.1381 143.088 18.0631 142.963 18.0631C142.837 18.0631 142.736 18.1131 142.661 18.213C142.561 18.338 142.46 18.5878 142.36 18.9625L141.23 23.1348L144.922 21.0612C145.298 20.8613 145.524 20.6864 145.6 20.5865C145.65 20.5115 145.675 20.4116 145.65 20.2867C145.625 20.1618 145.55 20.0119 145.374 19.837C145.374 19.812 145.349 19.812 145.323 19.762L145.449 19.6121L147.157 20.8863Z" fill="white"/>
<path d="M153.185 27.1824L151.226 29.0062L152.256 30.0805C152.532 30.3553 152.733 30.5052 152.909 30.5302C153.135 30.5551 153.411 30.4302 153.712 30.1804L153.838 30.3053L152.105 31.9043L151.979 31.7793C152.18 31.5295 152.306 31.3546 152.356 31.2547C152.406 31.1298 152.406 31.0048 152.356 30.8549C152.306 30.705 152.18 30.5302 152.004 30.3303L150.975 29.256L149.342 30.78C149.116 30.9799 148.991 31.1048 148.965 31.1797C148.94 31.2547 148.94 31.3047 148.94 31.3796C148.965 31.4546 149.041 31.5545 149.166 31.7044L149.945 32.5538C150.196 32.8286 150.422 33.0285 150.573 33.1035C150.724 33.2034 150.924 33.2534 151.151 33.2534C151.452 33.2534 151.829 33.2034 152.281 33.0785L152.406 33.2284L150.749 33.9529L147.182 30.1304L147.308 30.0055L147.484 30.1804C147.584 30.3053 147.735 30.3803 147.885 30.4302C147.986 30.4802 148.111 30.4802 148.212 30.4302C148.312 30.3803 148.488 30.2553 148.739 30.0305L151.979 27.0325C152.306 26.7327 152.457 26.5328 152.482 26.4079C152.507 26.233 152.406 26.0331 152.231 25.8333L152.055 25.6584L152.18 25.5334L155.747 29.331L154.717 30.3803L154.591 30.2304C154.792 29.9306 154.943 29.7057 154.968 29.5558C155.018 29.4059 154.993 29.231 154.943 29.0811C154.893 28.9562 154.742 28.7563 154.516 28.5065L153.185 27.1824Z" fill="white"/>
<path d="M158.836 38.5246C158.861 38.5746 158.912 38.6246 158.937 38.6496C158.962 38.6995 158.987 38.7245 159.012 38.7495C159.389 39.2741 159.766 39.5989 160.193 39.6989C160.62 39.7988 160.996 39.7488 161.348 39.499C161.7 39.2492 161.9 38.9494 161.976 38.5996C162.051 38.2248 161.951 37.8751 161.7 37.5003C161.599 37.3504 161.423 37.1505 161.172 36.9007L158.836 38.5246ZM158.686 44.4457L157.656 42.9717L158.962 39.2991C158.861 39.1742 158.786 39.0493 158.711 38.9743C158.686 38.9494 158.66 38.8994 158.635 38.8494C158.61 38.7995 158.585 38.7745 158.56 38.7245L156.927 39.8488C156.576 40.0986 156.375 40.2735 156.35 40.4234C156.3 40.5983 156.35 40.7981 156.5 41.023L156.651 41.2478L156.5 41.3478L154.843 38.9743L154.993 38.8744L155.144 39.0743C155.295 39.2991 155.496 39.424 155.722 39.424C155.847 39.424 156.073 39.3241 156.4 39.0993L160.017 36.6259C160.368 36.3761 160.569 36.2012 160.594 36.0513C160.645 35.8514 160.594 35.6515 160.444 35.4517L160.293 35.2518L160.444 35.1519L161.85 37.1755C162.252 37.7751 162.528 38.2248 162.629 38.5746C162.729 38.9244 162.729 39.2492 162.654 39.6239C162.554 39.9737 162.353 40.2735 162.026 40.4734C161.674 40.6982 161.298 40.7981 160.896 40.7482C160.494 40.6982 160.067 40.4734 159.64 40.0736L158.836 42.3221C158.66 42.8468 158.56 43.2215 158.56 43.4964C158.56 43.7712 158.66 44.071 158.836 44.3958L158.686 44.4457Z" fill="white"/>
<path d="M169.712 50.2419L167.602 51.2663L167.527 51.0914C167.903 50.8415 168.18 50.5917 168.355 50.3169C168.531 50.0671 168.607 49.7673 168.632 49.4425C168.657 49.1177 168.581 48.8179 168.456 48.5431C168.305 48.2433 168.079 48.0184 167.778 47.9185C167.476 47.8185 167.225 47.8185 166.974 47.9435C166.798 48.0434 166.648 48.1933 166.572 48.3932C166.447 48.693 166.371 49.2676 166.321 50.142C166.296 50.8665 166.246 51.3662 166.195 51.641C166.145 51.9158 166.02 52.1907 165.844 52.3905C165.668 52.6154 165.467 52.7903 165.241 52.8902C164.789 53.1151 164.287 53.14 163.784 52.9402C163.282 52.7403 162.88 52.3655 162.604 51.8159C162.528 51.641 162.453 51.4661 162.403 51.2913C162.378 51.1913 162.327 50.9665 162.277 50.6417C162.227 50.3169 162.177 50.092 162.152 50.0171C162.127 49.9421 162.051 49.8922 162.001 49.8672C161.926 49.8422 161.825 49.8672 161.674 49.9172L161.599 49.7423L163.684 48.7179L163.759 48.8928C163.357 49.1926 163.081 49.4425 162.93 49.6923C162.78 49.9172 162.704 50.217 162.679 50.5667C162.679 50.9165 162.754 51.2413 162.905 51.5661C163.081 51.9408 163.332 52.1907 163.634 52.2906C163.935 52.4155 164.236 52.3905 164.488 52.2656C164.638 52.1907 164.764 52.0657 164.889 51.9158C164.99 51.7659 165.09 51.5661 165.115 51.3162C165.141 51.1663 165.191 50.7416 165.216 50.092C165.241 49.4425 165.291 48.9428 165.367 48.643C165.442 48.3432 165.542 48.0684 165.693 47.8685C165.844 47.6437 166.045 47.4938 166.296 47.3688C166.723 47.144 167.2 47.144 167.677 47.3189C168.154 47.4937 168.531 47.8435 168.782 48.3682C168.933 48.693 169.034 49.0677 169.059 49.5174C169.059 49.7173 169.084 49.8672 169.109 49.9172C169.159 49.9921 169.209 50.0421 169.285 50.0671C169.36 50.092 169.461 50.092 169.636 50.0421L169.712 50.2419Z" fill="white"/>
<path d="M167.225 62.1841L167.049 62.2341L166.095 59.5109L166.271 59.4609L166.346 59.6858C166.446 59.9606 166.572 60.1105 166.773 60.1854C166.898 60.2354 167.15 60.1854 167.551 60.0355L171.696 58.5865C172.022 58.4616 172.223 58.3866 172.324 58.3117C172.399 58.2617 172.449 58.1618 172.449 58.0369C172.474 57.862 172.474 57.7121 172.399 57.5622L172.324 57.3373L172.499 57.2874L173.454 60.0106L173.278 60.0605L173.203 59.8357C173.102 59.5858 172.977 59.411 172.776 59.336C172.65 59.286 172.399 59.336 171.997 59.4609L167.853 60.91C167.526 61.0349 167.325 61.1098 167.225 61.1848C167.15 61.2348 167.124 61.3347 167.099 61.4596C167.074 61.6095 167.074 61.7844 167.125 61.9343L167.225 62.1841Z" fill="white"/>
<path d="M176.593 72.1028L175.061 72.5025L175.011 72.3276C175.287 72.2277 175.463 72.1527 175.564 72.0528C175.739 71.9029 175.84 71.753 175.89 71.5531C175.94 71.3782 175.94 71.1284 175.89 70.8536L175.689 69.9292L170.616 71.0035C170.214 71.0784 169.963 71.1784 169.887 71.3033C169.787 71.4532 169.737 71.653 169.812 71.9279L169.862 72.1527L169.686 72.2027L169.083 69.4045L169.259 69.3546L169.31 69.5794C169.36 69.8542 169.485 70.0291 169.686 70.1291C169.812 70.179 170.063 70.154 170.415 70.0791L175.488 69.0048L175.312 68.2053C175.237 67.9055 175.187 67.6807 175.111 67.5557C175.011 67.4058 174.86 67.2809 174.659 67.206C174.458 67.131 174.207 67.106 173.906 67.131L173.856 66.9561L175.438 66.7063L176.593 72.1028Z" fill="white"/>
<path d="M177.849 83.6699L178 86.0183H177.824V85.8934C177.824 85.8185 177.774 85.6936 177.698 85.5187C177.623 85.3688 177.498 85.2189 177.347 85.094C177.196 84.969 176.945 84.8191 176.618 84.6442L173.956 83.1702L172.248 83.2702C171.821 83.2951 171.57 83.3451 171.47 83.445C171.344 83.57 171.269 83.7698 171.294 84.0446L171.319 84.2695H171.143L170.967 81.4214H171.143L171.168 81.6712C171.193 81.946 171.294 82.1459 171.47 82.2708C171.57 82.3458 171.821 82.3707 172.198 82.3458L173.805 82.2458L176.543 80.2222C176.87 79.9723 177.071 79.8224 177.146 79.7475C177.221 79.6725 177.322 79.4976 177.422 79.2478C177.447 79.1729 177.472 79.0729 177.447 78.948H177.623L177.799 81.8211H177.623V81.6712C177.623 81.5213 177.573 81.3714 177.498 81.2465C177.422 81.1216 177.297 81.0716 177.146 81.0716C177.02 81.0716 176.819 81.1965 176.518 81.4214L174.408 82.9454L176.568 84.1446C176.895 84.3195 177.121 84.4194 177.297 84.3944C177.397 84.3944 177.472 84.3694 177.548 84.3195C177.623 84.2695 177.673 84.1945 177.698 84.0946C177.724 83.9947 177.749 83.8698 177.749 83.6949L177.849 83.6699Z" fill="white"/>
<path d="M177.849 91.415H0V96.1369H177.849V91.415Z" fill="white"/>
<path d="M169.033 97.4861H8.84082V102.208H169.033V97.4861Z" fill="white"/>
<path d="M160.996 103.407H16.8784V108.129H160.996V103.407Z" fill="white"/>
<path d="M152.582 109.278H25.292V114H152.582V109.278Z" fill="white"/>
<path d="M93.4081 3.17291V3.92242H92.6546L92.1272 4.44707L91.5997 3.92242H90.8462V3.17291L90.3188 2.64826L90.8462 2.1236V1.3741H91.5997L92.1272 0.849441L92.6546 1.3741H93.4081V2.1236L93.9356 2.64826L93.4081 3.17291ZM94.0109 1.87377V0.774491H92.9058L92.1272 0L91.3486 0.774491H90.2434V1.87377L89.4648 2.64826L90.2434 3.42275V4.52203H91.3486L92.1272 5.29652L92.9058 4.52203H94.0109V3.42275L94.7895 2.64826L94.0109 1.87377Z" fill="white"/>
</svg>
